:SAMPLES-PER-SECOND 24
:FULLY-SPECIFIED
:DEGREES
585
root  -0.559498 38.7603 27.5426 -177.44 -42.3436 172.771
RightUpLeg  -25.2398 -39.4139 -12.7521
RightLeg  16.778 4.341 1.27101
RightFoot  21.3157 -2.94731 10.5485
RightToes  -1.74623e-010 0 -2.59999e-017
Spine  5.46739 -1.32667 -6.31222
Spine1  16.1335 -2.09015 0.844405
HEad  -5.98632 -21.6483 10.4917
LeftShoulder1  1.47859 -1.94166 -20.7339
LeftArm  10.3936 11.7435 -39.2208
LeftForeArm  124.836 -75.4483 -134.317
LeftHand  1.16432 15.2442 14.0639
RightShoulder  2.83832 4.9152 27.7531
RightArm  -26.1895 -22.1075 31.2179
RightForeArm  -2.43276 51.1894 14.2105
RightHand  -1.94958 0.550627 -37.0718
LeftUpLeg  2.5529 18.0123 6.43105
LeftLeg  24.0185 -7.30482 -3.20305
LeftFoot  -13.4142 -0.15955 -13.1967
LeftToes  -6.27559e-011 -2.10356e-011 8.24929e-012
586
root  -0.27327 40.0463 27.4415 -177.242 -44.2866 173.722
RightUpLeg  -21.3203 -28.6996 -15.0956
RightLeg  23.0986 3.68666 1.54724
RightFoot  21.0121 -2.52643 9.20383
RightToes  -1.74623e-010 0 -2.59999e-017
Spine  4.72899 -1.47125 -6.39112
Spine1  15.3486 -2.33414 1.07079
HEad  -5.36253 -22.629 11.8374
LeftShoulder1  1.45633 -1.91531 -20.4363
LeftArm  10.3005 21.7901 -36.0484
LeftForeArm  125.019 -75.2639 -134.96
LeftHand  0.974728 15.0707 12.1497
RightShoulder  2.79014 4.80701 27.6089
RightArm  -20.3513 -24.9564 31.0657
RightForeArm  13.3417 61.0216 19.5848
RightHand  -0.643706 -1.03155 -17.3735
LeftUpLeg  3.03284 13.3445 6.81237
LeftLeg  17.5024 -3.33141 -2.82681
LeftFoot  -2.93188 1.0259 -13.5072
LeftToes  -6.27559e-011 -2.10356e-011 8.24929e-012
587
root  0.05191 40.8579 27.3525 -176.331 -47.6556 173.166
RightUpLeg  -17.8009 -23.5783 -16.8492
RightLeg  27.4889 8.82712 4.76077
RightFoot  20.0237 -3.05667 11.3681
RightToes  -1.74623e-010 0 -2.59999e-017
Spine  4.75851 -2.11932 -6.76457
Spine1  13.6389 -2.92508 0.632815
HEad  -3.51131 -23.9445 12.2818
LeftShoulder1  1.46558 -2.18277 -19.2636
LeftArm  9.82371 29.2153 -33.2818
LeftForeArm  124.06 -75.4934 -134.003
LeftHand  0.700421 14.3214 9.68046
RightShoulder  2.44923 4.22451 25.6393
RightArm  -16.4867 -27.404 34.1283
RightForeArm  30.5423 69.0759 27.4241
RightHand  0.0243665 -0.983076 0.549169
LeftUpLeg  2.36837 9.4612 6.9648
LeftLeg  14.3508 0.39782 -2.76788
LeftFoot  5.25135 2.19524 -15.2017
LeftToes  -6.27559e-011 -2.10356e-011 8.24929e-012
588
root  0.366571 41.0488 27.367 -175.893 -50.1345 172.811
RightUpLeg  -15.4923 -20.711 -17.6541
RightLeg  30.7776 11.4379 7.05469
RightFoot  17.3211 -2.74695 11.1825
RightToes  -1.74623e-010 0 -2.59999e-017
Spine  4.42745 -2.07508 -6.20485
Spine1  13.0252 -2.68813 0.0839473
HEad  -2.96909 -25.8867 12.1572
LeftShoulder1  1.46263 -2.49588 -17.7578
LeftArm  8.29434 32.5346 -32.333
LeftForeArm  123.308 -75.9281 -132.32
LeftHand  0.45701 12.9399 7.77331
RightShoulder  1.99684 3.46311 22.4512
RightArm  -11.2194 -27.3774 36.6175
RightForeArm  40.4286 74.3095 39.1931
RightHand  0.107268 -3.70922 10.1197
LeftUpLeg  1.16743 12.6849 7.85127
LeftLeg  16.6741 0.21621 -1.07828
LeftFoot  7.66339 2.27491 -13.8335
LeftToes  -6.27559e-011 -2.10356e-011 8.24929e-012
589
root  0.712952 40.6579 27.4432 -176.846 -50.8985 173.401
RightUpLeg  -13.7774 -17.0791 -17.617
RightLeg  32.5804 9.4988 6.25705
RightFoot  11.9516 -2.27418 11.4028
RightToes  -1.74623e-010 0 -2.59999e-017
Spine  4.47847 -1.11962 -4.66155
Spine1  13.3127 -1.40321 -0.800381
HEad  -3.85386 -27.7235 12.002
LeftShoulder1  1.41727 -2.55483 -16.6866
LeftArm  5.72413 31.8558 -32.7883
LeftForeArm  122.152 -76.2978 -130.671
LeftHand  0.507263 12.7208 8.75537
RightShoulder  1.7518 3.12628 20.0685
RightArm  -8.29762 -25.7409 36.5496
RightForeArm  54.6615 77.8911 57.3003
RightHand  -0.175593 -6.59663 12.039
LeftUpLeg  0.531395 14.121 9.76958
LeftLeg  23.1125 0.348723 0.507403
LeftFoot  7.11068 1.65614 -10.4416
LeftToes  -6.27559e-011 -2.10356e-011 8.24929e-012
590
root  1.0855 39.6429 27.4942 -177.707 -51.5066 173.345
RightUpLeg  -11.7625 -15.3335 -17.9903
RightLeg  33.5042 8.34917 5.67611
RightFoot  1.90912 -1.44782 12.442
RightToes  -1.74623e-010 0 -2.59999e-017
Spine  5.56551 -0.411233 -3.75773
Spine1  12.7158 -0.359544 -2.07946
HEad  -4.79811 -28.7153 11.6925
LeftShoulder1  1.37975 -2.56259 -15.9797
LeftArm  3.10589 29.9384 -33.0105
LeftForeArm  122.974 -76.1841 -131.293
LeftHand  0.71012 12.6305 11.9852
RightShoulder  1.65471 3.04515 18.8227
RightArm  -8.61689 -22.7215 35.7464
RightForeArm  71.0888 79.3755 74.576
RightHand  -0.114151 -6.14013 10.5874
LeftUpLeg  0.75951 12.6632 12.069
LeftLeg  30.0213 -0.729559 -0.107431
LeftFoot  3.75122 1.44799 -11.1621
LeftToes  -6.27559e-011 -2.10356e-011 8.24929e-012
591
root  1.42262 38.179 27.6435 -177.671 -52.2639 172.707
RightUpLeg  -11.7731 -18.0654 -18.8689
RightLeg  36.8962 9.46345 7.32253
RightFoot  -9.52649 -0.246871 9.79552
RightToes  -1.74623e-010 0 -2.59999e-017
Spine  6.34709 -0.353014 -3.556
Spine1  12.1641 -0.0936414 -3.21529
HEad  -6.89077 -29.2942 11.3998
LeftShoulder1  1.3891 -2.45004 -16.6228
LeftArm  0.163721 26.5841 -32.2466
LeftForeArm  123.408 -75.9315 -132.361
LeftHand  0.871185 11.8617 16.0619
RightShoulder  1.68422 3.10017 19.0848
RightArm  -10.5896 -15.8141 32.9182
RightForeArm  68.467 79.2763 73.8467
RightHand  -0.0565674 -5.73838 8.33629
LeftUpLeg  0.901539 11.8523 13.7782
LeftLeg  35.0009 -2.94867 -1.83968
LeftFoot  -5.6415 0.819119 -16.485
LeftToes  -6.27559e-011 -2.10356e-011 8.24929e-012
592
root  1.71241 36.7877 28.0246 -177.987 -51.614 173.066
RightUpLeg  -15.5929 -21.0614 -19.1211
RightLeg  43.895 10.1228 10.0142
RightFoot  -16.0245 0.152616 6.3995
RightToes  -1.74623e-010 0 -2.59999e-017
Spine  6.29796 -0.0786987 -2.35876
Spine1  13.0099 0.611175 -4.98463
HEad  -10.827 -30.1661 12.2809
LeftShoulder1  1.475 -2.18071 -19.4575
LeftArm  -2.96786 19.8648 -31.8758
LeftForeArm  116.727 -77.0128 -126.35
LeftHand  1.24049 12.5039 20.3147
RightShoulder  1.97606 3.65014 21.3445
RightArm  -16.2915 -6.95751 28.8752
RightForeArm  45.0277 76.2554 47.66
RightHand  -0.0165107 -5.04179 2.53852
LeftUpLeg  0.551007 13.0411 15.0503
LeftLeg  38.4786 -4.8781 -3.75997
LeftFoot  -16.7297 -0.855909 -20.0597
LeftToes  -6.27559e-011 -2.10356e-011 8.24929e-012
593
root  1.88267 36.2008 28.3917 -179.309 -50.6069 174.133
RightUpLeg  -18.0788 -21.2245 -18.77
RightLeg  47.7703 10.0971 11.4044
RightFoot  -16.4289 0.148946 5.85689
RightToes  -1.74623e-010 0 -2.59999e-017
Spine  6.21672 0.583558 -1.27157
Spine1  14.2709 1.60496 -6.25116
HEad  -13.7052 -31.2917 14.2163
LeftShoulder1  1.6479 -2.31851 -21.9617
LeftArm  -3.05758 13.5754 -34.6869
LeftForeArm  102.837 -78.8379 -110.779
LeftHand  2.01418 14.9531 24.1149
RightShoulder  2.35131 4.33456 23.8731
RightArm  -23.373 -3.15918 28.8898
RightForeArm  37.5101 68.9105 25.9668
RightHand  -0.116336 -4.24563 -10.2469
LeftUpLeg  0.935793 14.6854 16.1499
LeftLeg  39.7949 -6.14614 -5.05909
LeftFoot  -21.6165 -1.68745 -20.0203
LeftToes  -6.27559e-011 -2.10356e-011 8.24929e-012
594
root  1.81688 36.9383 28.5093 179.15 -51.9026 175.125
RightUpLeg  -14.4588 -20.7437 -18.3532
RightLeg  42.6959 9.88756 9.4049
RightFoot  -13.4811 0.0357503 6.76443
RightToes  -1.74623e-010 0 -2.59999e-017
Spine  5.69172 0.649491 -2.43744
Spine1  14.9425 1.07184 -4.12189
HEad  -12.8626 -32.4784 14.9571
LeftShoulder1  1.78171 -2.73649 -22.2309
LeftArm  1.57495 12.8881 -39.9823
LeftForeArm  93.2112 -79.5406 -98.7773
LeftHand  2.2461 16.1464 23.9074
RightShoulder  2.56715 4.64967 25.4385
RightArm  -25.8949 -6.24916 32.6485
RightForeArm  42.461 62.7281 17.6622
RightHand  0.834287 -9.92103 -21.6602
LeftUpLeg  2.66702 13.879 16.6544
LeftLeg  36.1942 -6.64994 -4.81974
LeftFoot  -18.0273 -1.0906 -20.4172
LeftToes  -6.27559e-011 -2.10356e-011 8.24929e-012
595
root  1.57477 38.5707 28.532 178.508 -54.776 175.745
RightUpLeg  -8.61906 -20.2116 -17.9624
RightLeg  32.5969 8.46139 5.59114
RightFoot  -5.49834 -0.593194 10.2036
RightToes  -1.74623e-010 0 -2.59999e-017
Spine  4.48979 -0.240715 -5.051
Spine1  14.4779 -0.866312 -0.398312
HEad  -8.952 -33.326 13.6263
LeftShoulder1  1.8191 -2.89074 -22.12
LeftArm  8.27053 16.3521 -43.1363
LeftForeArm  97.1621 -79.5606 -100.79
LeftHand  1.14083 14.1264 15.4382
RightShoulder  2.76705 4.84125 27.1738
RightArm  -21.7288 -12.9419 34.2824
RightForeArm  41.6016 58.8507 14.8169
RightHand  1.18908 -13.8448 -17.2379
LeftUpLeg  4.2849 11.5606 15.9734
LeftLeg  29.0655 -6.48448 -3.52919
LeftFoot  -7.45834 0.735395 -20.3379
LeftToes  -6.27559e-011 -2.10356e-011 8.24929e-012
